{"title":"Darkest Day 2015 Movies BRRip XviD AAC New Source +Sample ☻rDX☻","uid":15559850,"size":739422475,"categoryP":"video","categoryS":"movies","magnet":"?xt=urn:btih:9bba196591fd4056c240f427a1a107d16a5eb41a&amp;dn=Darkest+Day+2015+Movies+BRRip+XviD+AAC+New+Source+%2BSample+%E2%98%BBrDX%E2%98%BB&amp;tr=udp%3A%2F%2Ftracker.leechers-paradise.org%3A6969&amp;tr=udp%3A%2F%2Fzer0day.ch%3A1337&amp;tr=udp%3A%2F%2Fopen.demonii.com%3A1337&amp;tr=udp%3A%2F%2Ftracker.coppersurfer.tk%3A6969&amp;tr=udp%3A%2F%2Fexodus.desync.com%3A6969","seeders":1,"leechers":0,"uploader":"basicssom","files":2,"time":1471116841,"description":"----------------------------------------------------------------\r\nDarkest Day 2015 English Movies BRRip XviD AAC New Source with Sample ☻rDX☻\r\n\r\nSCREEN SHOTS &amp; POSTER:\r\n  \nhttp://postimage.co.nr/2016/8/advertise/index.htm  \nhttp://postimage.co.nr/2016/8/advertise/1.html  \nhttp://postimage.co.nr/2016/8/advertise/2.html  \nhttp://postimage.co.nr/2016/8/advertise/3.html  \nhttp://postimage.co.nr/2016/8/advertise/4.html  \nhttp://postimage.co.nr/2016/8/advertise/5.html  \nhttp://postimage.co.nr/2016/8/advertise/6.html  \nhttp://postimage.co.nr/2016/8/advertise/7.html  \nhttp://postimage.co.nr/2016/8/advertise/8.html  \nhttp://postimage.co.nr/2016/8/advertise/9.html  \nhttp://postimage.co.nr/2016/8/advertise/10.html\r\n\r\nFormat                                   : Matroska\r\nFormat version                           : Version 4 / Version 2\r\nFile size                                : 699 MiB\r\nDuration                                 : 1 h 33 min\r\nOverall bit rate mode                    : Constant\r\nOverall bit rate                         : 1 041 kb/s\r\nMovie name                               : Darkest Day 2015 English Movies BRRip XviD AAC New Source ☻rDX☻\r\n\r\nVideo\r\nID                                       : 2\r\nFormat                                   : AVC\r\nFormat/Info                              : Advanced Video Codec\r\nFormat profile                           :   \r\nFormat settings, CABAC                   : Yes\r\nFormat settings, ReFrames                : 2 frames\r\nFormat settings, GOP                     : M=1, N=12\r\nCodec ID                                 : V_MPEG4/ISO/AVC\r\nDuration                                 : 1 h 33 min\r\nBit rate mode                            : Constant\r\nBit rate                                 : 594 kb/s\r\nWidth                                    : 720 pixels\r\nHeight                                   : 304 pixels\r\nDisplay aspect ratio                     : 2.35:1\r\nFrame rate mode                          : Constant\r\nFrame rate                               : 23.976 FPS\r\nColor space                              : YUV\r\nChroma subsampling                       : 4:2:0\r\nBit depth                                : 8 bits\r\nScan type                                : Progressive\r\nBits/(Pixel*Frame)                       : 0.113\r\nStream size                              : 384 MiB (55%)\r\nTitle                                    : ☻rDX☻\r\nDefault                                  : Yes\r\nForced                                   : No\r\n\r\nAudio\r\nID                                       : 1\r\nFormat                                   : AC-3\r\nFormat/Info                              : Audio Coding 3\r\nMode extension                           : CM (complete main)\r\nFormat settings, Endianness              : Big\r\nCodec ID                                 : A_AC3\r\nDuration                                 : 1 h 33 min\r\nBit rate mode                            : Constant\r\nBit rate                                 : 448 kb/s\r\nChannel(s)                               : 6 channels\r\nChannel positions                        : Front: L C R, Side: L R, LFE\r\nSampling rate                            : 48.0 kHz\r\nFrame rate                               : 31.250 FPS (1536 spf)\r\nCompression mode                         : Lossy\r\nStream size                              : 301 MiB (43%)\r\nTitle                                    : ☻rDX☻\r\nDefault                                  : Yes\r\nForced                                   : No\r\n\r\nIMDB \nhttp://www.imdb.com/title/tt2630992/","torrent":{"xt":"urn:btih:9bba196591fd4056c240f427a1a107d16a5eb41a","amp;dn":"Darkest+Day+2015+Movies+BRRip+XviD+AAC+New+Source+%2BSample+%E2%98%BBrDX%E2%98%BB","amp;tr":["udp%3A%2F%2Ftracker.leechers-paradise.org%3A6969","udp%3A%2F%2Fzer0day.ch%3A1337","udp%3A%2F%2Fopen.demonii.com%3A1337","udp%3A%2F%2Ftracker.coppersurfer.tk%3A6969","udp%3A%2F%2Fexodus.desync.com%3A6969"],"infoHash":"9bba196591fd4056c240f427a1a107d16a5eb41a","infoHashBuffer":{"type":"Buffer","data":[155,186,25,101,145,253,64,86,194,64,244,39,161,161,7,209,106,94,180,26]},"announce":[],"urlList":[]}}